# xmcd
#
# Track frame offsets:
#	150
#	13632
#	23698
#	33816
#	46880
#	58467
#	72708
#	83647
#	102138
#	119181
#	132093
#	141583
#	154005
#	164510
#	171627
#	185325
#	204095
#	220315
#	235001
#	246995
#	258990
#	285783
#	302973
#
# Disc length: 4236 seconds
#
# Revision: 1
# Processed by: cddbd v1.5.2PL0 Copyright (c) Steve Scherf et al.
# Submitted via: EZCDAudioConverter 1.3.4.1
#
DISCID=4e108a17
DTITLE=Buzzcocks - Another Music In A Different Kitchen 2/2
DYEAR=1976
DGENRE=
TTITLE0=Boredom [Demo]
TTITLE1=Fast Cars [Demo]
TTITLE2=No Reply [Demo]
TTITLE3=You Tear Me Up [Demo]
TTITLE4=Get On Our Own [Demo]
TTITLE5=Sixteen [Demo]
TTITLE6=I Don't Mind [Demo]
TTITLE7=Fiction Romance [Demo]
TTITLE8=Autonomy [Demo]
TTITLE9=I Need [Demo]
TTITLE10=Orgasm Addict [Demo]
TTITLE11=What Do I Get? [Demo]
TTITLE12=Whatever Happened To...? [Demo]
TTITLE13=Oh Shit [Demo]
TTITLE14=Fast Cars [Live]
TTITLE15=Fiction Romance [Live]
TTITLE16=Boredom [Live]
TTITLE17=Sixteen [Live]
TTITLE18=You Tear Me Up [Live]
TTITLE19=Orgasm Addict [Live]
TTITLE20=Moving Away From The Pulsebeat [Live]
TTITLE21=Love Battery [Live]
TTITLE22=Time's Up [Live]
EXTD=
EXTT0=
EXTT1=
EXTT2=
EXTT3=
EXTT4=
EXTT5=
EXTT6=
EXTT7=
EXTT8=
EXTT9=
EXTT10=
EXTT11=
EXTT12=
EXTT13=
EXTT14=
EXTT15=
EXTT16=
EXTT17=
EXTT18=
EXTT19=
EXTT20=
EXTT21=
EXTT22=
PLAYORDER=
